<svg xmlns="http://www.w3.org/2000/svg" viewBox="0 0 256 256">
  <title id="title">Spread logo</title>
  <path
        fill="#bfdbfe"
        d="M 118.062 61.75 h 92.75 c 9.938 0 18.219 8.281 18.219 18.219 v 96.062 c 0 9.938 -8.281 18.219 -18.219 18.219 H 118.062 V 61.75z"
    />
  <path
        fill="#000"
        d="M 31.938 59.266 c 0 -6.625 4.969 -12.422 11.594 -13.25 L 135.453 28.625 c 9.109 -1.656 17.391 4.969 17.391 14.078 v 170.594 c 0 9.109 -8.281 15.734 -17.391 14.078 L 43.531 209.984 c -6.625 -0.828 -11.594 -6.625 -11.594 -13.25 V 59.266z"
    />
  <path
        fill="#fff"
        d="M 91.562 168.578 c -16.562 0 -28.984 -7.453 -35.609 -19.047 -2.484 -4.141 -0.828 -9.938 4.141 -12.422 4.141 -2.484 9.938 -0.828 12.422 3.312 3.312 6.625 9.938 10.766 19.047 10.766 10.766 0 18.219 -4.969 18.219 -12.422 0 -6.625 -4.141 -9.938 -19.875 -13.25 -19.875 -4.141 -31.469 -13.25 -31.469 -30.641 0 -18.219 14.906 -31.469 36.438 -31.469 14.906 0 26.5 5.797 33.125 16.562 2.484 4.141 1.656 9.938 -2.484 12.422 s -9.938 1.656 -12.422 -2.484 c -3.312 -5.797 -9.109 -9.109 -18.219 -9.109 -10.766 0 -17.391 5.797 -17.391 13.25 0 6.625 4.969 9.938 20.703 13.25 20.703 4.141 31.469 13.25 31.469 30.641 0 19.047 -14.906 30.641 -38.094 30.641z"
    />
</svg>
